<svg xmlns="http://www.w3.org/2000/svg" viewBox="0 0 120 120" width="120" height="120">
  <defs>
    <linearGradient id="mango-grad" x1="15%" y1="15%" x2="85%" y2="85%">
      <stop offset="0%" stop-color="#FDE047" />
      <stop offset="35%" stop-color="#F59E0B" />
      <stop offset="70%" stop-color="#EA580C" />
      <stop offset="100%" stop-color="#BE123C" />
    </linearGradient>
    <filter id="mgo-shadow" x="-20%" y="-20%" width="140%" height="140%">
      <feDropShadow dx="0" dy="6" stdDeviation="6" flood-color="#7C2D12" flood-opacity="0.4"/>
    </filter>
  </defs>
  <!-- Mango Leaf -->
  <path d="M60 24 C76 14, 98 18, 104 26 C98 38, 80 42, 66 32 Z" fill="#15803D" />
  <!-- Stem -->
  <path d="M58 28 C56 18, 62 12, 64 8" stroke="#78350F" stroke-width="2.5" stroke-linecap="round" fill="none" />
  <!-- Mango kidney curve with characteristic beak -->
  <path d="M56 28 C74 24, 94 40, 94 66 C94 88, 76 102, 54 102 C38 102, 28 88, 30 68 C32 50, 42 32, 56 28 Z"
        fill="url(#mango-grad)" filter="url(#mgo-shadow)" />
  <!-- Highlighting shine -->
  <path d="M44 44 C40 56, 44 74, 52 84" stroke="#FEF08A" stroke-width="3" stroke-linecap="round" fill="none" opacity="0.45" />
  <circle cx="48" cy="42" r="3.5" fill="#FFFFFF" opacity="0.75" />
</svg>